<svg xmlns="http://www.w3.org/2000/svg" viewBox="0 0 2048 2048"><path d="M1298 704Q1374 704 1441.5 670.0Q1509 636 1554 576H1280Q1193 576 1119 532Q1046 490 1004 417Q960 343 960 256V-128Q960 -181 976.5 -230.0Q993 -279 1024 -320Q823 -320 671 -292Q547 -269 460 -228Q396 -198 357 -162Q334 -140 327 -110Q321 -84 327 -58L438 452Q453 525 498.5 582.0Q544 639 610.0 671.5Q676 704 750 704ZM1728 128Q1755 128 1773.5 109.5Q1792 91 1792.0 64.5Q1792 38 1773.5 19.0Q1755 0 1728 0H1472Q1446 0 1427.0 19.0Q1408 38 1408.0 64.5Q1408 91 1427.0 109.5Q1446 128 1472 128ZM1920 384Q1955 384 1984.5 367.0Q2014 350 2031.0 320.5Q2048 291 2048 256V-128Q2048 -163 2031.0 -192.0Q2014 -221 1984.5 -238.5Q1955 -256 1920 -256H1280Q1245 -256 1215.5 -238.5Q1186 -221 1169.0 -192.0Q1152 -163 1152 -128V256Q1152 291 1169.0 320.5Q1186 350 1215.5 367.0Q1245 384 1280 384ZM1280 -128H1920V256H1280ZM750 1500Q759 1535 785.0 1560.5Q811 1586 845.5 1595.5Q880 1605 916 1595L1308 1490Q1343 1481 1368.5 1455.5Q1394 1430 1403.5 1395.0Q1413 1360 1403 1325L1298 932Q1289 897 1263.5 871.5Q1238 846 1203.0 836.5Q1168 827 1133 837L740 942Q705 951 679.5 977.0Q654 1003 644.5 1037.5Q635 1072 645 1107Z" transform="scale(1, -1) translate(0, -1664)" fill="currentColor"/></svg>
