<svg viewBox="0 0 2048 2105.0047" xmlns="http://www.w3.org/2000/svg"><path d="M1631 973l-47 4-159 169q-17 17-17 42 0 27 18.5 44.5t44.5 17.5q26 0 44-19 84-88 126-130 94-8 183-18 46-6 76.5-41t30.5-82V320q0-35-17-64.5t-46.5-46.5q-29.5-17-64.5-17H768q-35 0-64.5 17T657 255.5Q640 285 640 320v256q0 27 18.5 45.5T704 640q27 0 45.5-18.5T768 576V320h1035v636q-83 10-172 17zm-294-4q0 60-30 111.5t-81.5 82Q1174 1193 1113 1193t-112.5-30.5q-51.5-30.5-81.5-82t-30-112q0-60.5 30-112t81.5-81.5q51.5-30 112.5-30t112.5 30q51.5 30 81.5 81.5t30 112.5zM378 818q9-34 33-58t57-33q33-9 66 0l186 50q33 9 57 33t33 57q9 33 0 67l-49 185q-9 34-33.5 58t-57.5 33q-33 9-66 0l-186-50q-33-9-57-33t-33-57q-9-33 0-67l50-185zm191 1103q113 0 204-17 68-14 118-36 40-18 56-58 15-36 6-73l-45-193q-18-78-67.5-139T720 1309.5q-71-34.5-151-34.5t-151 34.5q-71 34.5-120.5 95.5T230 1544l-45 193q-8 37 6 73 16 40 56 58 50 22 118 36 91 17 204 17zm386-528q-6-8-10-16-10-25-.5-49.5T979 1293q26-12 48-15 15-2 44-2h95q66 0 125 28.5t100 79.5q41 51 57 115l58 249q7 33-5 63-13 34-47 51l-5 2q-48 25-92 36-80 21-202 21h-29q-27-1-45-20.5t-17-45.5v-4q-1-66-16-155-28-156-93-303z"/></svg>
